<?xml version="1.0" encoding="UTF-8"?><svg id="Capa_3" xmlns="http://www.w3.org/2000/svg" xmlns:xlink="http://www.w3.org/1999/xlink" viewBox="0 0 20 20"><defs><style>.cls-1{fill:url(#Degradado_sin_nombre_7);stroke-width:0px;}</style><linearGradient id="Degradado_sin_nombre_7" x1="3.76" y1="2.74" x2="16.27" y2="17.21" gradientUnits="userSpaceOnUse"><stop offset="0" stop-color="#5b066e"/><stop offset="1" stop-color="#061043"/></linearGradient></defs><path class="cls-1" d="M10.04.43C4.76.43.48,4.72.48,10s4.28,9.57,9.57,9.57,9.57-4.28,9.57-9.57S15.33.43,10.04.43ZM10.08,17.81c-2.45,0-4.63-1.13-6.06-2.9h8.47c.7-.02,1.35-.22,1.91-.55,1.02-.61,1.73-1.68,1.81-2.91,0-.02,0-.03,0-.05,0-.54-.44-.98-.98-.98s-.98.44-.98.98h0c0,.78-.64,1.41-1.44,1.41h-1.16s-5.68,0-5.68,0c-.01-.07-.02-.15-.02-.22,0-.77.64-1.4,1.44-1.4h2.99c.28-.01.56-.05.83-.12.08-.02.15-.04.22-.06.61-.2,1.15-.54,1.58-.98.12-.12.23-.25.33-.39.38-.52.64-1.14.7-1.81.01-.12.02-.24.02-.36.01-1.52-1.22-2.67-2.69-3.13-.12-.04-.24-.07-.37-.07-.56,0-1.02.46-1.02,1.02,0,.52.39.95.9,1.01h0c.62.1,1.11.57,1.2,1.18.01.07.02.14.02.21,0,.77-.64,1.4-1.44,1.4h-2.93c-.3,0-.6.05-.88.12-.58.15-1.11.43-1.55.8-.8.68-1.3,1.69-1.3,2.8h-1.19c-.33-.86-.51-1.8-.51-2.78,0-4.3,3.48-7.78,7.78-7.78s7.78,3.48,7.78,7.78-3.48,7.78-7.78,7.78Z"/></svg>